<svg width="51" height="78" viewBox="0 0 51 78" fill="none" xmlns="http://www.w3.org/2000/svg">
<path d="M50.9991 0.185685V15.4486C50.9991 19.1527 49.7338 22.5806 47.6088 25.3379C47.6517 25.364 47.6749 25.3882 47.6749 25.4083C47.6749 25.4593 47.5848 25.5176 47.4191 25.58C47.0005 26.1025 46.5514 26.5988 46.0739 27.0676C43.0355 30.0473 38.8438 31.8972 34.2312 31.8972H31.6288V41.9259H31.6237C31.6237 42.9467 31.2844 43.8898 30.7117 44.6516C30.3018 45.1955 29.7749 45.6496 29.1674 45.9755V53.7628C29.1674 53.8647 29.1652 53.968 29.1616 54.072C29.7546 54.3885 30.2713 54.8258 30.6753 55.3496C31.2734 56.1229 31.6288 57.086 31.6288 58.1249V68.0027C36.0473 68.2355 39.8982 68.7136 42.6976 69.3508C46.2049 70.1489 48.2992 71.3756 48.2992 72.9202C48.2992 74.6512 45.5035 76.0208 40.984 76.8357C36.9971 77.5547 31.5198 78 25.4989 78C19.4795 78 14.002 77.5546 10.0151 76.8357C5.49552 76.0201 2.69837 74.6505 2.69837 72.9202C2.69837 71.3756 4.79433 70.1488 8.30068 69.3508C11.1001 68.7137 14.9495 68.2355 19.3695 68.0027V58.1249C19.3695 57.086 19.7249 56.1229 20.323 55.3496C20.7263 54.8258 21.2437 54.3892 21.8368 54.072C21.8317 53.9687 21.8309 53.8654 21.8309 53.7628V45.9755C21.2234 45.6496 20.6951 45.1955 20.2866 44.6516C19.7132 43.8897 19.3746 42.9467 19.3746 41.9259H19.3695V31.8972H16.7671C12.1553 31.8972 7.96283 30.0475 4.92437 27.0676C1.88592 24.0864 0 19.9745 0 15.4486V-1H51V0.185763L50.9991 0.185685ZM33.0729 1.37145V6.10046C33.0729 7.40091 33.6158 8.58403 34.4893 9.44045C35.3628 10.2976 36.5693 10.8308 37.8941 10.8308H39.5801V14.9958H39.5786C39.5786 15.1614 39.6339 15.3157 39.7291 15.4418C39.8264 15.5699 39.9631 15.6665 40.1215 15.7154L40.4071 15.8026V18.9723C40.4071 19.026 40.4086 19.0756 40.4122 19.1225C40.4173 19.1769 40.4231 19.2245 40.4296 19.2654L40.4885 19.6155L40.1404 19.7121C39.9776 19.7577 39.8366 19.8549 39.7356 19.9844C39.6382 20.1105 39.5808 20.2674 39.5808 20.4377V24.5148L39.1906 24.5316C37.5968 24.5987 36.2101 24.761 35.2306 24.9836C34.4479 25.162 33.9806 25.3143 33.9806 25.4082C33.9806 25.549 34.6645 25.7435 35.772 25.9434C37.0576 26.1748 38.8447 26.3183 40.8287 26.3183C41.7494 26.3183 42.6266 26.2875 43.4311 26.2318C40.9355 28.2861 37.724 29.5275 34.2329 29.5275H29.2134V41.9265H29.2185C29.2185 42.4194 29.0514 42.8782 28.7694 43.2538C28.4823 43.6354 28.0739 43.9251 27.603 44.0693L26.7527 44.3295V53.7633C26.7527 53.9236 26.7477 54.0725 26.7353 54.2094C26.7229 54.373 26.7055 54.5145 26.6852 54.6366L26.5115 55.6768L27.5485 55.9652C28.0318 56.0994 28.4533 56.3891 28.7505 56.7761C29.0412 57.151 29.2134 57.6185 29.2134 58.1255V70.2609L30.3748 70.3099C35.1181 70.5098 39.2446 70.9947 42.161 71.658C44.4915 72.1872 45.8833 72.6406 45.8833 72.9209C45.8833 73.3407 43.8456 73.9182 40.5498 74.5118C36.7214 75.2019 31.4017 75.6291 25.4993 75.6291C19.5975 75.6291 14.2779 75.2019 10.4501 74.5118C7.15435 73.9175 5.11588 73.3407 5.11588 72.9209C5.11588 72.6406 6.50902 72.1872 8.83971 71.658C11.7561 70.9947 15.8818 70.5098 20.6259 70.3099L21.7872 70.2609V58.1255C21.7872 57.6191 21.9595 57.151 22.2487 56.7761C22.5474 56.3891 22.9689 56.0994 23.4522 55.9652L24.4892 55.6768L24.3155 54.6366C24.2945 54.5152 24.2778 54.3717 24.2639 54.2094C24.253 54.0719 24.2465 53.923 24.2465 53.7633V44.3295L23.3977 44.0693C22.9253 43.9251 22.5176 43.6354 22.2313 43.2538C21.9493 42.8782 21.7822 42.4188 21.7822 41.9265H21.7872V29.5275H16.7678C12.8224 29.5275 9.23604 27.9433 6.63273 25.3913C4.03111 22.8387 2.417 19.319 2.417 15.4491V1.37217H33.0732L33.0729 1.37145ZM44.9906 24.7375C44.245 24.6409 43.3896 24.5705 42.4653 24.5323L42.075 24.5155V20.4384C42.075 20.2681 42.0161 20.1111 41.9188 19.985C41.8192 19.8556 41.6775 19.7577 41.5154 19.7127L41.1673 19.6162L41.2255 19.2661C41.2327 19.2251 41.2378 19.1775 41.2429 19.1232C41.2465 19.0769 41.2487 19.0266 41.2487 18.973V15.8033L41.5343 15.7161C41.6928 15.6671 41.8294 15.5706 41.9253 15.4425C42.0198 15.3164 42.0765 15.1621 42.0765 14.9964H42.075V10.8315H43.761C45.0866 10.8315 46.2908 10.2989 47.1658 9.44112C48.0393 8.58465 48.5822 7.40155 48.5822 6.10113V15.4498C48.5822 18.9997 47.2239 22.2546 44.9899 24.7382L44.9906 24.7375Z" fill="#ADAF41"/>
</svg>
