<svg width="64" height="78" viewBox="0 0 64 78" fill="none" xmlns="http://www.w3.org/2000/svg">
<path fill-rule="evenodd" clip-rule="evenodd" d="M64 -1H31.9393H0C4.09893 4.18813 15.9218 31.0403 26.9709 32.0129V42.3878C25.925 43.4478 25.2832 46.1074 25.2832 47.6887C25.2832 49.2701 25.9344 51.9511 26.9941 53.0132V68.5045C20.4202 69.0869 15.6099 70.9497 15.6099 73.1579C15.6099 75.8322 22.6669 78 31.3686 78C40.0707 78 47.1273 75.8322 47.1273 73.1579C47.1273 70.9498 42.317 69.087 35.7431 68.5045V52.9757C36.8876 51.9022 37.312 49.072 37.3265 48.3056C37.3584 46.5563 36.721 43.4964 35.3455 42.4114V32.0138C47.0114 31.2527 59.7311 4.40391 63.9991 -0.99909L64 -1Z" fill="#4F58AA"/>
</svg>
